<svg xmlns="http://www.w3.org/2000/svg" width="1200" height="675" viewBox="0 0 1200 675" fill="none">
  <rect width="1200" height="675" rx="48" fill="#0b1220" />
  <rect x="50" y="50" width="1100" height="575" rx="40" fill="url(#gradient)" />
  <rect x="140" y="150" width="420" height="280" rx="28" fill="#ffffff" fill-opacity="0.95" />
  <rect x="180" y="190" width="340" height="18" rx="9" fill="#0ea5e9" />
  <rect x="180" y="230" width="260" height="14" rx="7" fill="#94a3b8" />
  <rect x="180" y="260" width="300" height="14" rx="7" fill="#94a3b8" />
  <rect x="180" y="300" width="220" height="14" rx="7" fill="#94a3b8" />
  <rect x="500" y="210" width="420" height="260" rx="28" fill="#ffffff" fill-opacity="0.82" />
  <rect x="540" y="250" width="300" height="18" rx="9" fill="#10b8a6" />
  <rect x="540" y="290" width="260" height="14" rx="7" fill="#94a3b8" />
  <rect x="540" y="320" width="280" height="14" rx="7" fill="#94a3b8" />
  <rect x="540" y="350" width="200" height="14" rx="7" fill="#94a3b8" />
  <rect x="260" y="470" width="680" height="120" rx="26" fill="#0f172a" fill-opacity="0.55" />
  <rect x="300" y="510" width="200" height="14" rx="7" fill="#38bdf8" />
  <rect x="300" y="540" width="260" height="14" rx="7" fill="#a7f3d0" />
  <defs>
    <linearGradient id="gradient" x1="50" y1="50" x2="1150" y2="625" gradientUnits="userSpaceOnUse">
      <stop stop-color="#0ea5e9" />
      <stop offset="0.5" stop-color="#10b8a6" />
      <stop offset="1" stop-color="#f8fafc" />
    </linearGradient>
  </defs>
</svg>
