<svg xmlns="http://www.w3.org/2000/svg" width="1200" height="675" viewBox="0 0 1200 675" fill="none">
  <rect width="1200" height="675" rx="48" fill="#0f172a" />
  <rect x="50" y="50" width="1100" height="575" rx="40" fill="url(#gradient)" />
  <rect x="140" y="160" width="360" height="300" rx="28" fill="#ffffff" fill-opacity="0.92" />
  <rect x="190" y="210" width="260" height="16" rx="8" fill="#0ea5e9" />
  <rect x="190" y="250" width="220" height="14" rx="7" fill="#94a3b8" />
  <rect x="190" y="280" width="240" height="14" rx="7" fill="#94a3b8" />
  <rect x="580" y="190" width="460" height="230" rx="28" fill="#ffffff" fill-opacity="0.85" />
  <rect x="630" y="240" width="300" height="16" rx="8" fill="#10b8a6" />
  <rect x="630" y="275" width="250" height="14" rx="7" fill="#94a3b8" />
  <rect x="630" y="305" width="280" height="14" rx="7" fill="#94a3b8" />
  <rect x="240" y="500" width="720" height="90" rx="24" fill="#0b1220" fill-opacity="0.6" />
  <circle cx="310" cy="545" r="10" fill="#38bdf8" />
  <circle cx="360" cy="545" r="10" fill="#10b8a6" />
  <circle cx="410" cy="545" r="10" fill="#22c55e" />
  <defs>
    <linearGradient id="gradient" x1="50" y1="50" x2="1150" y2="625" gradientUnits="userSpaceOnUse">
      <stop stop-color="#e0f2fe" />
      <stop offset="0.5" stop-color="#bae6fd" />
      <stop offset="1" stop-color="#a7f3d0" />
    </linearGradient>
  </defs>
</svg>
