<svg xmlns="http://www.w3.org/2000/svg" width="1200" height="675" viewBox="0 0 1200 675" fill="none">
  <rect width="1200" height="675" rx="48" fill="#0f172a" />
  <rect x="50" y="50" width="1100" height="575" rx="40" fill="url(#gradient)" />
  <rect x="140" y="200" width="360" height="220" rx="28" fill="#ffffff" fill-opacity="0.92" />
  <rect x="200" y="250" width="240" height="14" rx="7" fill="#94a3b8" />
  <rect x="200" y="280" width="200" height="14" rx="7" fill="#94a3b8" />
  <rect x="200" y="310" width="220" height="14" rx="7" fill="#94a3b8" />
  <rect x="700" y="210" width="360" height="220" rx="28" fill="#ffffff" fill-opacity="0.88" />
  <rect x="760" y="260" width="220" height="14" rx="7" fill="#94a3b8" />
  <rect x="760" y="290" width="200" height="14" rx="7" fill="#94a3b8" />
  <rect x="760" y="320" width="240" height="14" rx="7" fill="#94a3b8" />
  <path d="M520 310h160" stroke="#0f172a" stroke-opacity="0.6" stroke-width="12" stroke-linecap="round" />
  <path d="M650 280l30 30-30 30" stroke="#0f172a" stroke-opacity="0.6" stroke-width="12" stroke-linecap="round" stroke-linejoin="round" />
  <defs>
    <linearGradient id="gradient" x1="50" y1="50" x2="1150" y2="625" gradientUnits="userSpaceOnUse">
      <stop stop-color="#e2e8f0" />
      <stop offset="0.55" stop-color="#bae6fd" />
      <stop offset="1" stop-color="#10b8a6" />
    </linearGradient>
  </defs>
</svg>
