<svg xmlns="http://www.w3.org/2000/svg" width="1200" height="675" viewBox="0 0 1200 675" fill="none">
  <rect width="1200" height="675" rx="48" fill="#0b1220" />
  <rect x="50" y="50" width="1100" height="575" rx="40" fill="url(#gradient)" />
  <path d="M260 470c120-140 360-200 560-140 110 34 200 120 240 230" stroke="#0f172a" stroke-opacity="0.6" stroke-width="12" stroke-linecap="round" />
  <circle cx="320" cy="380" r="22" fill="#10b8a6" />
  <circle cx="470" cy="330" r="18" fill="#38bdf8" />
  <circle cx="610" cy="340" r="20" fill="#22c55e" />
  <circle cx="740" cy="400" r="18" fill="#0ea5e9" />
  <circle cx="880" cy="470" r="22" fill="#10b8a6" />
  <rect x="210" y="160" width="320" height="160" rx="24" fill="#ffffff" fill-opacity="0.92" />
  <rect x="260" y="210" width="220" height="14" rx="7" fill="#94a3b8" />
  <rect x="260" y="240" width="180" height="14" rx="7" fill="#94a3b8" />
  <rect x="690" y="170" width="300" height="140" rx="24" fill="#ffffff" fill-opacity="0.88" />
  <rect x="730" y="210" width="200" height="14" rx="7" fill="#94a3b8" />
  <rect x="730" y="240" width="160" height="14" rx="7" fill="#94a3b8" />
  <defs>
    <linearGradient id="gradient" x1="50" y1="50" x2="1150" y2="625" gradientUnits="userSpaceOnUse">
      <stop stop-color="#fde68a" />
      <stop offset="0.5" stop-color="#fca5a5" />
      <stop offset="1" stop-color="#38bdf8" />
    </linearGradient>
  </defs>
</svg>
